<?xml version="1.0" encoding="UTF-8"?>
<!--Generator: SymbolBuilder-->
<!DOCTYPE svg
PUBLIC "-//W3C//DTD SVG 1.1//EN"
       "http://www.w3.org/Graphics/SVG/1.1/DTD/svg11.dtd">
<svg version="1.1" xmlns="http://www.w3.org/2000/svg" xmlns:xlink="http://www.w3.org/1999/xlink" viewBox="0 0 3300 2200">
 <!--point size: 100.0, template writer version: SymbolBuilder 1.0-->
 <style>.multicolor-0:systemYellowColor {fill:#ffcc00;opacity:1.0}
.hierarchical-0:primary {fill:#212121}
.multicolor-1:systemOrangeColor {fill:#ff9500;opacity:1.0}
.hierarchical-1:primary {fill:#212121}
.multicolor-2:systemYellowColor {fill:#ffcc00;opacity:1.0}
.hierarchical-2:primary {fill:#212121}
.multicolor-3:systemPinkColor {fill:#ff2d55;opacity:1.0}
.hierarchical-3:primary {fill:#212121}
.multicolor-4:systemBlackColor {fill:#000000;opacity:1.0}
.hierarchical-4:primary {fill:#212121}
.multicolor-5:systemRedColor {fill:#ff3b30;opacity:1.0}
.hierarchical-5:primary {fill:#212121}
.hierarchical-6:primary {fill:#212121}
</style>
 <g id="Notes">
  <rect height="2200" id="artboard" style="fill:white;opacity:1" width="3300" x="0" y="0"/>
  <line style="fill:none;stroke:black;opacity:1;stroke-width:0.5;" x1="263" x2="3036" y1="292" y2="292"/>
  <text style="stroke:none;fill:black;font-family:sans-serif;font-size:13;font-weight:bold;" transform="matrix(1 0 0 1 263 322)">Weight/Scale Variations</text>
  <text style="stroke:none;fill:black;font-family:sans-serif;font-size:13;text-anchor:middle;" transform="matrix(1 0 0 1 559.711 322)">Ultralight</text>
  <text style="stroke:none;fill:black;font-family:sans-serif;font-size:13;text-anchor:middle;" transform="matrix(1 0 0 1 1449.84 322)">Regular</text>
  <text style="stroke:none;fill:black;font-family:sans-serif;font-size:13;text-anchor:middle;" transform="matrix(1 0 0 1 2933.4 322)">Black</text>
  <line style="fill:none;stroke:black;opacity:1;stroke-width:0.5;" x1="263" x2="3036" y1="1903" y2="1903"/>
  <text id="template-version" style="stroke:none;fill:black;font-family:sans-serif;font-size:13;text-anchor:end;" transform="matrix(1 0 0 1 3036 1933)">Template v.7.0</text>
  <text id="descriptive-name" style="stroke:none;fill:black;font-family:sans-serif;font-size:13;text-anchor:end;" transform="matrix(1 0 0 1 3036 1969)">Logocurves</text>
 </g>
 <g id="Guides">
  <line id="Baseline-S" style="fill:none;stroke:#27AAE1;opacity:1;stroke-width:0.5;" x1="263" x2="3036" y1="696" y2="696"/>
  <line id="Capline-S" style="fill:none;stroke:#27AAE1;opacity:1;stroke-width:0.5;" x1="263" x2="3036" y1="625.541" y2="625.541"/>
  <line id="Baseline-M" style="fill:none;stroke:#27AAE1;opacity:1;stroke-width:0.5;" x1="263" x2="3036" y1="1126" y2="1126"/>
  <line id="Capline-M" style="fill:none;stroke:#27AAE1;opacity:1;stroke-width:0.5;" x1="263" x2="3036" y1="1055.541" y2="1055.541"/>
  <line id="Baseline-L" style="fill:none;stroke:#27AAE1;opacity:1;stroke-width:0.5;" x1="263" x2="3036" y1="1556" y2="1556"/>
  <line id="Capline-L" style="fill:none;stroke:#27AAE1;opacity:1;stroke-width:0.5;" x1="263" x2="3036" y1="1485.541" y2="1485.541"/>
  <line id="left-margin-Ultralight-S" style="fill:none;stroke:#00AEEF;stroke-width:0.5;opacity:1.0;" x1="521.89" x2="521.89" y1="600.541" y2="721"/>
  <line id="right-margin-Ultralight-S" style="fill:none;stroke:#00AEEF;stroke-width:0.5;opacity:1.0;" x1="597.532" x2="597.532" y1="600.541" y2="721"/>
  <line id="left-margin-Regular-S" style="fill:none;stroke:#00AEEF;stroke-width:0.5;opacity:1.0;" x1="1412.019" x2="1412.019" y1="600.541" y2="721"/>
  <line id="right-margin-Regular-S" style="fill:none;stroke:#00AEEF;stroke-width:0.5;opacity:1.0;" x1="1487.661" x2="1487.661" y1="600.541" y2="721"/>
  <line id="left-margin-Black-S" style="fill:none;stroke:#00AEEF;stroke-width:0.5;opacity:1.0;" x1="2895.579" x2="2895.579" y1="600.541" y2="721"/>
  <line id="right-margin-Black-S" style="fill:none;stroke:#00AEEF;stroke-width:0.5;opacity:1.0;" x1="2971.221" x2="2971.221" y1="600.541" y2="721"/>
 </g>
 <g id="Symbols">
  <g id="Ultralight-S" transform="matrix(1 0 0 1 525.837 696)">
   <path class="monochrome-0 multicolor-0:systemYellowColor hierarchical-0:primary" d="M23.61236 -24.73703C25.01248 -21.39627 13.04451 -15.27841 10.99114 -16.29C9.895 -17.979 15.92125 -28.9233 19.01742 -29.17393C20.91881 -28.36164 22.90575 -26.421 23.61236 -24.73703Z"/>
   <path class="monochrome-1 multicolor-1:systemOrangeColor hierarchical-1:primary" d="M47.28895 -24.99281L47.28895 -10.27795C47.28895 -9.89172 46.97544 -9.57799 46.58998 -9.57799L42.59697 -9.57799C42.21207 -9.57799 41.89801 -9.89216 41.89801 -10.27795L41.89801 -24.99281C41.89801 -25.37766 42.21213 -25.69178 42.59697 -25.69178L46.58998 -25.69178C46.97538 -25.69178 47.28895 -25.3781 47.28895 -24.99281Z"/>
   <path class="monochrome-2 multicolor-2:systemYellowColor hierarchical-2:primary" d="M36.57672 -14.84672L36.57672 -10.27795C36.57672 -9.89227 36.26207 -9.57799 35.874 -9.57799L31.87348 -9.57799C31.48543 -9.57799 31.1708 -9.89225 31.1708 -10.27795L31.1708 -14.84672C31.1708 -15.23203 31.48504 -15.54568 31.87348 -15.54568L35.874 -15.54568C36.26246 -15.54568 36.57672 -15.23201 36.57672 -14.84672Z"/>
   <path class="monochrome-3 multicolor-3:systemPinkColor hierarchical-3:primary" d="M54.30329 -60.0498C56.13825 -57.27472 51.62384 -39.203 37.95177 -32.449C35.39008 -24.24656 32.59487 -21.00344 29.82382 -19.01549C27.88419 -20.30287 27.55504 -23.00648 27.7171 -26.18419C26.85045 -25.87719 25.83383 -25.91443 24.89069 -25.94462C23.8801 -26.48011 20.90774 -29.3327 20.52223 -30.63619C20.37426 -31.70414 20.70441 -33.19687 20.93592 -34.09673C18.28566 -34.05848 16.86943 -33.46562 13.05458 -34.41581C15.5136 -40.50347 21.63045 -42.02538 26.63002 -42.83868C34.9321 -59.83238 53.97415 -61.33719 54.30329 -60.0498ZM37.20793 -49.27561C35.2854 -47.35309 35.2391 -44.27806 37.10324 -42.41291C38.96839 -40.54876 42.04343 -40.59506 43.96595 -42.51759C45.88847 -44.44011 45.93578 -47.51514 44.07063 -49.38029C42.20548 -51.24545 39.13045 -51.19814 37.20793 -49.27561Z"/>
   <path class="monochrome-4 multicolor-4:systemBlackColor hierarchical-4:primary" d="M42.21639 -48.32766C43.10094 -47.4431 43.09777 -46.00286 42.20564 -45.11137C41.62706 -44.53151 40.78704 -44.30409 40.00156 -44.51248C39.21885 -44.72077 38.60892 -45.33087 38.4012 -46.11384C38.19207 -46.89967 38.41922 -47.73934 38.99774 -48.31658C39.89096 -49.2098 41.33147 -49.21257 42.21639 -48.32766Z"/>
   <path class="monochrome-5 multicolor-5:systemRedColor hierarchical-5:primary" d="M57.80805 -35.07449L57.80805 -10.27695C57.80805 -9.8915 57.49432 -9.57799 57.10808 -9.57799L53.11608 -9.57799C52.72984 -9.57799 52.41611 -9.8915 52.41611 -10.27695L52.41611 -35.07449C52.41611 -35.46034 52.73023 -35.77446 53.11608 -35.77446L57.10808 -35.77446C57.49393 -35.77446 57.80805 -35.46034 57.80805 -35.07449Z"/>
   <path class="monochrome-6 hierarchical-6:primary" d="M56.45278 -71.56508C56.81391 -71.46603 57.17457 -71.35955 57.53642 -71.24513L57.63287 -71.21235C63.41263 -69.10867 67.96556 -64.55573 70.06924 -58.77597L70.10203 -58.67952C70.21644 -58.31767 70.32293 -57.95702 70.42197 -57.59589C71.53546 -53.53588 71.69517 -50.70159 71.69517 -40.20788L71.69517 -30.25112C71.69517 -19.75741 71.53546 -16.92312 70.42197 -12.86311C70.32293 -12.50198 70.21644 -12.14133 70.10203 -11.77948L70.06924 -11.68303C67.96556 -5.90327 63.41263 -1.35033 57.63287 0.75335L57.53642 0.78613C57.17457 0.90055 56.81391 1.00703 56.45278 1.10608C52.39278 2.21957 49.55849 2.37927 39.06477 2.37927L28.68273 2.37927C18.18902 2.37927 15.35472 2.21957 11.29472 1.10608C10.93359 1.00703 10.57294 0.90055 10.21109 0.78613L10.11463 0.75335C4.33487 -1.35033 -0.21806 -5.90327 -2.32174 -11.68303L-2.35452 -11.77948C-2.46894 -12.14133 -2.57543 -12.50198 -2.67447 -12.86311C-3.78796 -16.92312 -3.94766 -19.75741 -3.94766 -30.25112L-3.94766 -40.20788C-3.94766 -50.70159 -3.78796 -53.53588 -2.67447 -57.59589C-2.57543 -57.95702 -2.46894 -58.31767 -2.35452 -58.67952L-2.32174 -58.77597C-0.21806 -64.55573 4.33487 -69.10867 10.11463 -71.21235L10.21109 -71.24513C10.57294 -71.35955 10.93359 -71.46603 11.29472 -71.56508C15.35472 -72.67857 18.18902 -72.83827 28.68273 -72.83827L39.06477 -72.83827C49.55849 -72.83827 52.39278 -72.67857 56.45278 -71.56508ZM28.68273 -68.07973C18.65911 -68.07973 16.03955 -67.93213 12.55331 -66.976C12.27125 -66.89864 11.98913 -66.81573 11.70547 -66.72628C7.27702 -65.1032 3.78741 -61.61359 2.16433 -57.18514C2.07487 -56.90148 1.99197 -56.61936 1.91461 -56.33729C0.95848 -52.85106 0.81088 -50.2315 0.81088 -40.20788L0.81088 -30.25112C0.81088 -20.2275 0.95848 -17.60794 1.91461 -14.12171C1.99197 -13.83964 2.07487 -13.55752 2.16433 -13.27386C3.78741 -8.84541 7.27702 -5.3558 11.70547 -3.73272C11.98913 -3.64327 12.27125 -3.56036 12.55331 -3.483C16.03955 -2.52687 18.65911 -2.37927 28.68273 -2.37927L39.06477 -2.37927C49.0884 -2.37927 51.70796 -2.52687 55.19419 -3.483C55.47626 -3.56036 55.75837 -3.64327 56.04204 -3.73272C60.47049 -5.3558 63.96009 -8.84541 65.58317 -13.27386C65.67263 -13.55752 65.75554 -13.83964 65.8329 -14.12171C66.78903 -17.60794 66.93663 -20.2275 66.93663 -30.25112L66.93663 -40.20788C66.93663 -50.2315 66.78903 -52.85106 65.8329 -56.33729C65.75554 -56.61936 65.67263 -56.90148 65.58317 -57.18514C63.96009 -61.61359 60.47049 -65.10319 56.04204 -66.72628C55.75837 -66.81573 55.47626 -66.89864 55.19419 -66.976C51.70796 -67.93213 49.0884 -68.07973 39.06477 -68.07973Z"/>
  </g>
  <g id="Regular-S" transform="matrix(1 0 0 1 1415.966 696)">
   <path class="monochrome-0 multicolor-0:systemYellowColor hierarchical-0:primary" d="M23.61236 -24.73703C25.01248 -21.39627 13.04451 -15.27841 10.99114 -16.29C9.895 -17.979 15.92125 -28.9233 19.01742 -29.17393C20.91881 -28.36164 22.90575 -26.421 23.61236 -24.73703Z"/>
   <path class="monochrome-1 multicolor-1:systemOrangeColor hierarchical-1:primary" d="M48.58599 -24.99281L48.58599 -10.27795C48.58599 -9.17577 47.69216 -8.28095 46.58998 -8.28095L42.59697 -8.28095C41.4958 -8.28095 40.60097 -9.17577 40.60097 -10.27795L40.60097 -24.99281C40.60097 -26.09399 41.4958 -26.98882 42.59697 -26.98882L46.58998 -26.98882C47.69216 -26.98882 48.58599 -26.09399 48.58599 -24.99281Z"/>
   <path class="monochrome-2 multicolor-2:systemYellowColor hierarchical-2:primary" d="M37.87376 -14.84672L37.87376 -10.27795C37.87376 -9.17577 36.97824 -8.28095 35.874 -8.28095L31.87348 -8.28095C30.76924 -8.28095 29.87376 -9.17577 29.87376 -10.27795L29.87376 -14.84672C29.87376 -15.9489 30.76924 -16.84272 31.87348 -16.84272L35.874 -16.84272C36.97824 -16.84272 37.87376 -15.9489 37.87376 -14.84672Z"/>
   <path class="monochrome-3 multicolor-3:systemPinkColor hierarchical-3:primary" d="M54.30329 -60.0498C56.13825 -57.27472 51.62384 -39.203 37.95177 -32.449C35.39008 -24.24656 32.59487 -21.00344 29.82382 -19.01549C27.88419 -20.30287 27.55504 -23.00648 27.7171 -26.18419C26.85045 -25.87719 25.83383 -25.91443 24.89069 -25.94462C23.8801 -26.48011 20.90774 -29.3327 20.52223 -30.63619C20.37426 -31.70414 20.70441 -33.19687 20.93592 -34.09673C18.28566 -34.05848 16.86943 -33.46562 13.05458 -34.41581C15.5136 -40.50347 21.63045 -42.02538 26.63002 -42.83868C34.9321 -59.83238 53.97415 -61.33719 54.30329 -60.0498ZM37.20793 -49.27561C35.2854 -47.35309 35.2391 -44.27806 37.10324 -42.41291C38.96839 -40.54876 42.04343 -40.59506 43.96595 -42.51759C45.88847 -44.44011 45.93578 -47.51514 44.07063 -49.38029C42.20548 -51.24545 39.13045 -51.19814 37.20793 -49.27561Z"/>
   <path class="monochrome-4 multicolor-4:systemBlackColor hierarchical-4:primary" d="M43.13353 -49.2448C44.5256 -47.85273 44.52056 -45.591 43.12245 -44.1939C42.21857 -43.288 40.90199 -42.93168 39.66896 -43.25881C38.43592 -43.58694 37.47466 -44.54821 37.14753 -45.78124C36.81939 -47.01427 37.17572 -48.33085 38.08162 -49.23474C39.47972 -50.63284 41.74146 -50.63687 43.13353 -49.2448Z"/>
   <path class="monochrome-5 multicolor-5:systemRedColor hierarchical-5:primary" d="M59.10509 -35.07449L59.10509 -10.27695C59.10509 -9.17477 58.21026 -8.28095 57.10808 -8.28095L53.11608 -8.28095C52.0139 -8.28095 51.11907 -9.17477 51.11907 -10.27695L51.11907 -35.07449C51.11907 -36.17667 52.0139 -37.0715 53.11608 -37.0715L57.10808 -37.0715C58.21026 -37.0715 59.10509 -36.17667 59.10509 -35.07449Z"/>
   <path class="monochrome-6 hierarchical-6:primary" d="M56.45278 -71.56508C56.81391 -71.46603 57.17457 -71.35955 57.53642 -71.24513L57.63287 -71.21235C63.41263 -69.10867 67.96556 -64.55573 70.06924 -58.77597L70.10203 -58.67952C70.21644 -58.31767 70.32293 -57.95702 70.42197 -57.59589C71.53546 -53.53588 71.69517 -50.70159 71.69517 -40.20788L71.69517 -30.25112C71.69517 -19.75741 71.53546 -16.92312 70.42197 -12.86311C70.32293 -12.50198 70.21644 -12.14133 70.10203 -11.77948L70.06924 -11.68303C67.96556 -5.90327 63.41263 -1.35033 57.63287 0.75335L57.53642 0.78613C57.17457 0.90055 56.81391 1.00703 56.45278 1.10608C52.39278 2.21957 49.55849 2.37927 39.06477 2.37927L28.68273 2.37927C18.18902 2.37927 15.35472 2.21957 11.29472 1.10608C10.93359 1.00703 10.57294 0.90055 10.21109 0.78613L10.11463 0.75335C4.33487 -1.35033 -0.21806 -5.90327 -2.32174 -11.68303L-2.35452 -11.77948C-2.46894 -12.14133 -2.57543 -12.50198 -2.67447 -12.86311C-3.78796 -16.92312 -3.94766 -19.75741 -3.94766 -30.25112L-3.94766 -40.20788C-3.94766 -50.70159 -3.78796 -53.53588 -2.67447 -57.59589C-2.57543 -57.95702 -2.46894 -58.31767 -2.35452 -58.67952L-2.32174 -58.77597C-0.21806 -64.55573 4.33487 -69.10867 10.11463 -71.21235L10.21109 -71.24513C10.57294 -71.35955 10.93359 -71.46603 11.29472 -71.56508C15.35472 -72.67857 18.18902 -72.83827 28.68273 -72.83827L39.06477 -72.83827C49.55849 -72.83827 52.39278 -72.67857 56.45278 -71.56508ZM28.68273 -68.07973C18.65911 -68.07973 16.03955 -67.93213 12.55331 -66.976C12.27125 -66.89864 11.98913 -66.81573 11.70547 -66.72628C7.27702 -65.1032 3.78741 -61.61359 2.16433 -57.18514C2.07487 -56.90148 1.99197 -56.61936 1.91461 -56.33729C0.95848 -52.85106 0.81088 -50.2315 0.81088 -40.20788L0.81088 -30.25112C0.81088 -20.2275 0.95848 -17.60794 1.91461 -14.12171C1.99197 -13.83964 2.07487 -13.55752 2.16433 -13.27386C3.78741 -8.84541 7.27702 -5.3558 11.70547 -3.73272C11.98913 -3.64327 12.27125 -3.56036 12.55331 -3.483C16.03955 -2.52687 18.65911 -2.37927 28.68273 -2.37927L39.06477 -2.37927C49.0884 -2.37927 51.70796 -2.52687 55.19419 -3.483C55.47626 -3.56036 55.75837 -3.64327 56.04204 -3.73272C60.47049 -5.3558 63.96009 -8.84541 65.58317 -13.27386C65.67263 -13.55752 65.75554 -13.83964 65.8329 -14.12171C66.78903 -17.60794 66.93663 -20.2275 66.93663 -30.25112L66.93663 -40.20788C66.93663 -50.2315 66.78903 -52.85106 65.8329 -56.33729C65.75554 -56.61936 65.67263 -56.90148 65.58317 -57.18514C63.96009 -61.61359 60.47049 -65.10319 56.04204 -66.72628C55.75837 -66.81573 55.47626 -66.89864 55.19419 -66.976C51.70796 -67.93213 49.0884 -68.07973 39.06477 -68.07973Z"/>
  </g>
  <g id="Black-S" transform="matrix(1 0 0 1 2899.526 696)">
   <path class="monochrome-0 multicolor-0:systemYellowColor hierarchical-0:primary" d="M23.61236 -24.73703C25.01248 -21.39627 13.04451 -15.27841 10.99114 -16.29C9.895 -17.979 15.92125 -28.9233 19.01742 -29.17393C20.91881 -28.36164 22.90575 -26.421 23.61236 -24.73703Z"/>
   <path class="monochrome-1 multicolor-1:systemOrangeColor hierarchical-1:primary" d="M49.00439 -24.99281L49.00439 -10.27795C49.00439 -8.94457 47.92311 -7.86255 46.58998 -7.86255L42.59697 -7.86255C41.26454 -7.86255 40.18257 -8.94489 40.18257 -10.27795L40.18257 -24.99281C40.18257 -26.32506 41.26472 -27.40722 42.59697 -27.40722L46.58998 -27.40722C47.92292 -27.40722 49.00439 -26.32538 49.00439 -24.99281Z"/>
   <path class="monochrome-2 multicolor-2:systemYellowColor hierarchical-2:primary" d="M38.29216 -14.84672L38.29216 -10.27795C38.29216 -8.9444 37.20902 -7.86255 35.874 -7.86255L31.87348 -7.86255C30.53847 -7.86255 29.45536 -8.94439 29.45536 -10.27795L29.45536 -14.84672C29.45536 -16.18015 30.53834 -17.26112 31.87348 -17.26112L35.874 -17.26112C37.20914 -17.26112 38.29216 -16.18015 38.29216 -14.84672Z"/>
   <path class="monochrome-3 multicolor-3:systemPinkColor hierarchical-3:primary" d="M54.30329 -60.0498C56.13825 -57.27472 51.62384 -39.203 37.95177 -32.449C35.39008 -24.24656 32.59487 -21.00344 29.82382 -19.01549C27.88419 -20.30287 27.55504 -23.00648 27.7171 -26.18419C26.85045 -25.87719 25.83383 -25.91443 24.89069 -25.94462C23.8801 -26.48011 20.90774 -29.3327 20.52223 -30.63619C20.37426 -31.70414 20.70441 -33.19687 20.93592 -34.09673C18.28566 -34.05848 16.86943 -33.46562 13.05458 -34.41581C15.5136 -40.50347 21.63045 -42.02538 26.63002 -42.83868C34.9321 -59.83238 53.97415 -61.33719 54.30329 -60.0498ZM37.20793 -49.27561C35.2854 -47.35309 35.2391 -44.27806 37.10324 -42.41291C38.96839 -40.54876 42.04343 -40.59506 43.96595 -42.51759C45.88847 -44.44011 45.93578 -47.51514 44.07063 -49.38029C42.20548 -51.24545 39.13045 -51.19814 37.20793 -49.27561Z"/>
   <path class="monochrome-4 multicolor-4:systemBlackColor hierarchical-4:primary" d="M43.42938 -49.54065C44.98513 -47.9849 44.97956 -45.45818 43.41863 -43.89838C42.40949 -42.88698 40.93922 -42.48893 39.56136 -42.85448C38.18312 -43.22126 37.10871 -44.29598 36.74321 -45.67364C36.37665 -47.05104 36.77445 -48.52151 37.78577 -49.53059C39.34684 -51.09167 41.8735 -51.09653 43.42938 -49.54065Z"/>
   <path class="monochrome-5 multicolor-5:systemRedColor hierarchical-5:primary" d="M59.52349 -35.07449L59.52349 -10.27695C59.52349 -8.94382 58.44146 -7.86255 57.10808 -7.86255L53.11608 -7.86255C51.7827 -7.86255 50.70067 -8.94382 50.70067 -10.27695L50.70067 -35.07449C50.70067 -36.40774 51.78283 -37.4899 53.11608 -37.4899L57.10808 -37.4899C58.44133 -37.4899 59.52349 -36.40774 59.52349 -35.07449Z"/>
   <path class="monochrome-6 hierarchical-6:primary" d="M56.45278 -71.56508C56.81391 -71.46603 57.17457 -71.35955 57.53642 -71.24513L57.63287 -71.21235C63.41263 -69.10867 67.96556 -64.55573 70.06924 -58.77597L70.10203 -58.67952C70.21644 -58.31767 70.32293 -57.95702 70.42197 -57.59589C71.53546 -53.53588 71.69517 -50.70159 71.69517 -40.20788L71.69517 -30.25112C71.69517 -19.75741 71.53546 -16.92312 70.42197 -12.86311C70.32293 -12.50198 70.21644 -12.14133 70.10203 -11.77948L70.06924 -11.68303C67.96556 -5.90327 63.41263 -1.35033 57.63287 0.75335L57.53642 0.78613C57.17457 0.90055 56.81391 1.00703 56.45278 1.10608C52.39278 2.21957 49.55849 2.37927 39.06477 2.37927L28.68273 2.37927C18.18902 2.37927 15.35472 2.21957 11.29472 1.10608C10.93359 1.00703 10.57294 0.90055 10.21109 0.78613L10.11463 0.75335C4.33487 -1.35033 -0.21806 -5.90327 -2.32174 -11.68303L-2.35452 -11.77948C-2.46894 -12.14133 -2.57543 -12.50198 -2.67447 -12.86311C-3.78796 -16.92312 -3.94766 -19.75741 -3.94766 -30.25112L-3.94766 -40.20788C-3.94766 -50.70159 -3.78796 -53.53588 -2.67447 -57.59589C-2.57543 -57.95702 -2.46894 -58.31767 -2.35452 -58.67952L-2.32174 -58.77597C-0.21806 -64.55573 4.33487 -69.10867 10.11463 -71.21235L10.21109 -71.24513C10.57294 -71.35955 10.93359 -71.46603 11.29472 -71.56508C15.35472 -72.67857 18.18902 -72.83827 28.68273 -72.83827L39.06477 -72.83827C49.55849 -72.83827 52.39278 -72.67857 56.45278 -71.56508ZM28.68273 -68.07973C18.65911 -68.07973 16.03955 -67.93213 12.55331 -66.976C12.27125 -66.89864 11.98913 -66.81573 11.70547 -66.72628C7.27702 -65.1032 3.78741 -61.61359 2.16433 -57.18514C2.07487 -56.90148 1.99197 -56.61936 1.91461 -56.33729C0.95848 -52.85106 0.81088 -50.2315 0.81088 -40.20788L0.81088 -30.25112C0.81088 -20.2275 0.95848 -17.60794 1.91461 -14.12171C1.99197 -13.83964 2.07487 -13.55752 2.16433 -13.27386C3.78741 -8.84541 7.27702 -5.3558 11.70547 -3.73272C11.98913 -3.64327 12.27125 -3.56036 12.55331 -3.483C16.03955 -2.52687 18.65911 -2.37927 28.68273 -2.37927L39.06477 -2.37927C49.0884 -2.37927 51.70796 -2.52687 55.19419 -3.483C55.47626 -3.56036 55.75837 -3.64327 56.04204 -3.73272C60.47049 -5.3558 63.96009 -8.84541 65.58317 -13.27386C65.67263 -13.55752 65.75554 -13.83964 65.8329 -14.12171C66.78903 -17.60794 66.93663 -20.2275 66.93663 -30.25112L66.93663 -40.20788C66.93663 -50.2315 66.78903 -52.85106 65.8329 -56.33729C65.75554 -56.61936 65.67263 -56.90148 65.58317 -57.18514C63.96009 -61.61359 60.47049 -65.10319 56.04204 -66.72628C55.75837 -66.81573 55.47626 -66.89864 55.19419 -66.976C51.70796 -67.93213 49.0884 -68.07973 39.06477 -68.07973Z"/>
  </g>
 </g>
</svg>
