<?xml version="1.0" encoding="UTF-8"?>
<!--Generator: SymbolBuilder-->
<!DOCTYPE svg
PUBLIC "-//W3C//DTD SVG 1.1//EN"
       "http://www.w3.org/Graphics/SVG/1.1/DTD/svg11.dtd">
<svg version="1.1" xmlns="http://www.w3.org/2000/svg" xmlns:xlink="http://www.w3.org/1999/xlink" viewBox="0 0 3300 2200">
 <!--point size: 100.0, template writer version: SymbolBuilder 1.0-->
 <style>.multicolor-0:systemPinkColor {fill:#ff2d55;opacity:1.0}
.hierarchical-0:primary {fill:#212121}
.multicolor-1:systemBlackColor {fill:#000000;opacity:1.0}
.hierarchical-1:primary {fill:#212121}
.multicolor-2:systemYellowColor {fill:#ffcc00;opacity:1.0}
.hierarchical-2:primary {fill:#212121}
.multicolor-3:systemRedColor {fill:#ff3b30;opacity:1.0}
.hierarchical-3:primary {fill:#212121}
.multicolor-4:systemOrangeColor {fill:#ff9500;opacity:1.0}
.hierarchical-4:primary {fill:#212121}
.multicolor-5:systemYellowColor {fill:#ffcc00;opacity:1.0}
.hierarchical-5:primary {fill:#212121}
.hierarchical-6:primary {fill:#212121}
</style>
 <g id="Notes">
  <rect height="2200" id="artboard" style="fill:white;opacity:1" width="3300" x="0" y="0"/>
  <line style="fill:none;stroke:black;opacity:1;stroke-width:0.5;" x1="263" x2="3036" y1="292" y2="292"/>
  <text style="stroke:none;fill:black;font-family:sans-serif;font-size:13;font-weight:bold;" transform="matrix(1 0 0 1 263 322)">Weight/Scale Variations</text>
  <text style="stroke:none;fill:black;font-family:sans-serif;font-size:13;text-anchor:middle;" transform="matrix(1 0 0 1 559.711 322)">Ultralight</text>
  <text style="stroke:none;fill:black;font-family:sans-serif;font-size:13;text-anchor:middle;" transform="matrix(1 0 0 1 1449.84 322)">Regular</text>
  <text style="stroke:none;fill:black;font-family:sans-serif;font-size:13;text-anchor:middle;" transform="matrix(1 0 0 1 2933.4 322)">Black</text>
  <line style="fill:none;stroke:black;opacity:1;stroke-width:0.5;" x1="263" x2="3036" y1="1903" y2="1903"/>
  <text id="template-version" style="stroke:none;fill:black;font-family:sans-serif;font-size:13;text-anchor:end;" transform="matrix(1 0 0 1 3036 1933)">Template v.7.0</text>
  <text id="descriptive-name" style="stroke:none;fill:black;font-family:sans-serif;font-size:13;text-anchor:end;" transform="matrix(1 0 0 1 3036 1969)">Logocurves</text>
 </g>
 <g id="Guides">
  <line id="Baseline-S" style="fill:none;stroke:#27AAE1;opacity:1;stroke-width:0.5;" x1="263" x2="3036" y1="696" y2="696"/>
  <line id="Capline-S" style="fill:none;stroke:#27AAE1;opacity:1;stroke-width:0.5;" x1="263" x2="3036" y1="625.541" y2="625.541"/>
  <line id="Baseline-M" style="fill:none;stroke:#27AAE1;opacity:1;stroke-width:0.5;" x1="263" x2="3036" y1="1126" y2="1126"/>
  <line id="Capline-M" style="fill:none;stroke:#27AAE1;opacity:1;stroke-width:0.5;" x1="263" x2="3036" y1="1055.541" y2="1055.541"/>
  <line id="Baseline-L" style="fill:none;stroke:#27AAE1;opacity:1;stroke-width:0.5;" x1="263" x2="3036" y1="1556" y2="1556"/>
  <line id="Capline-L" style="fill:none;stroke:#27AAE1;opacity:1;stroke-width:0.5;" x1="263" x2="3036" y1="1485.541" y2="1485.541"/>
  <line id="left-margin-Ultralight-S" style="fill:none;stroke:#00AEEF;stroke-width:0.5;opacity:1.0;" x1="524.311" x2="524.311" y1="600.541" y2="721"/>
  <line id="right-margin-Ultralight-S" style="fill:none;stroke:#00AEEF;stroke-width:0.5;opacity:1.0;" x1="595.111" x2="595.111" y1="600.541" y2="721"/>
  <line id="left-margin-Regular-S" style="fill:none;stroke:#00AEEF;stroke-width:0.5;opacity:1.0;" x1="1414.44" x2="1414.44" y1="600.541" y2="721"/>
  <line id="right-margin-Regular-S" style="fill:none;stroke:#00AEEF;stroke-width:0.5;opacity:1.0;" x1="1485.24" x2="1485.24" y1="600.541" y2="721"/>
  <line id="left-margin-Black-S" style="fill:none;stroke:#00AEEF;stroke-width:0.5;opacity:1.0;" x1="2898" x2="2898" y1="600.541" y2="721"/>
  <line id="right-margin-Black-S" style="fill:none;stroke:#00AEEF;stroke-width:0.5;opacity:1.0;" x1="2968.8" x2="2968.8" y1="600.541" y2="721"/>
 </g>
 <g id="Symbols">
  <g id="Ultralight-S" transform="matrix(1 0 0 1 525.837 696)">
   <path class="monochrome-0 multicolor-0:systemPinkColor hierarchical-0:primary" d="M54.30329 -60.06831C56.13825 -57.29323 51.62384 -39.22151 37.95177 -32.46751C35.39008 -24.26507 32.59487 -21.02195 29.82382 -19.034C27.88419 -20.32138 27.55504 -23.02499 27.7171 -26.2027C26.85045 -25.8957 25.83383 -25.93294 24.89069 -25.96313C23.8801 -26.49862 20.90774 -29.35121 20.52223 -30.6547C20.37426 -31.72265 20.70441 -33.21538 20.93592 -34.11524C18.28566 -34.07699 16.86943 -33.48413 13.05458 -34.43432C15.5136 -40.52198 21.63045 -42.04389 26.63002 -42.85719C34.9321 -59.85089 53.97415 -61.3557 54.30329 -60.06831ZM37.20793 -49.29412C35.2854 -47.3716 35.2391 -44.29657 37.10324 -42.43142C38.96839 -40.56727 42.04343 -40.61357 43.96595 -42.5361C45.88847 -44.45862 45.93578 -47.53365 44.07063 -49.3988C42.20548 -51.26396 39.13045 -51.21665 37.20793 -49.29412Z"/>
   <path class="monochrome-1 multicolor-1:systemBlackColor hierarchical-1:primary" d="M42.21639 -48.32766C43.10094 -47.4431 43.09777 -46.00286 42.20564 -45.11137C41.62706 -44.53151 40.78704 -44.30409 40.00156 -44.51248C39.21885 -44.72077 38.60892 -45.33087 38.4012 -46.11384C38.19207 -46.89967 38.41922 -47.73934 38.99774 -48.31658C39.89096 -49.2098 41.33147 -49.21257 42.21639 -48.32766Z"/>
   <path class="monochrome-2 multicolor-2:systemYellowColor hierarchical-2:primary" d="M23.61236 -24.73703C25.01248 -21.39627 13.04451 -15.27841 10.99114 -16.29C9.895 -17.979 15.92125 -28.9233 19.01742 -29.17393C20.91881 -28.36164 22.90575 -26.421 23.61236 -24.73703Z"/>
   <path class="monochrome-3 multicolor-3:systemRedColor hierarchical-3:primary" d="M57.38889 -35.07449L57.38889 -10.27695C57.38889 -9.8915 57.07516 -9.57799 56.68892 -9.57799L52.69692 -9.57799C52.31068 -9.57799 51.99695 -9.8915 51.99695 -10.27695L51.99695 -35.07449C51.99695 -35.46034 52.31107 -35.77446 52.69692 -35.77446L56.68892 -35.77446C57.07477 -35.77446 57.38889 -35.46034 57.38889 -35.07449Z"/>
   <path class="monochrome-4 multicolor-4:systemOrangeColor hierarchical-4:primary" d="M46.86979 -24.99281L46.86979 -10.27795C46.86979 -9.89172 46.55628 -9.57799 46.17082 -9.57799L42.17781 -9.57799C41.79291 -9.57799 41.47885 -9.89216 41.47885 -10.27795L41.47885 -24.99281C41.47885 -25.37766 41.79297 -25.69178 42.17781 -25.69178L46.17082 -25.69178C46.55622 -25.69178 46.86979 -25.3781 46.86979 -24.99281Z"/>
   <path class="monochrome-5 multicolor-5:systemYellowColor hierarchical-5:primary" d="M36.56922 -14.84672L36.56922 -10.27795C36.56922 -9.89171 36.25571 -9.57799 35.87026 -9.57799L31.87725 -9.57799C31.4918 -9.57799 31.17829 -9.89171 31.17829 -10.27795L31.17829 -14.84672C31.17829 -15.23257 31.4914 -15.54568 31.87725 -15.54568L35.87026 -15.54568C36.25611 -15.54568 36.56922 -15.23257 36.56922 -14.84672Z"/>
   <path class="monochrome-6 hierarchical-6:primary" d="M69.27336 -58.40749L69.27336 -12.05151C69.27336 -5.4334 63.83997 0 57.05175 0L10.69576 0C3.90754 0 -1.52585 -5.4334 -1.52585 -12.05151L-1.52585 -58.40749C-1.52585 -65.0256 3.90754 -70.459 10.69576 -70.459L57.05175 -70.459C63.83997 -70.459 69.27336 -65.0256 69.27336 -58.40749ZM10.69576 -67.23701C5.9589 -67.23701 2.03534 -63.31446 2.03534 -58.40749L2.03534 -12.05151C2.03534 -7.14454 5.9589 -3.22199 10.69576 -3.22199L57.05175 -3.22199C61.7886 -3.22199 65.71216 -7.14454 65.71216 -12.05151L65.71216 -58.40749C65.71216 -63.31446 61.7886 -67.23701 57.05175 -67.23701Z"/>
  </g>
  <g id="Regular-S" transform="matrix(1 0 0 1 1415.966 696)">
   <path class="monochrome-0 multicolor-0:systemPinkColor hierarchical-0:primary" d="M54.30329 -60.06831C56.13825 -57.29323 51.62384 -39.22151 37.95177 -32.46751C35.39008 -24.26507 32.59487 -21.02195 29.82382 -19.034C27.88419 -20.32138 27.55504 -23.02499 27.7171 -26.2027C26.85045 -25.8957 25.83383 -25.93294 24.89069 -25.96313C23.8801 -26.49862 20.90774 -29.35121 20.52223 -30.6547C20.37426 -31.72265 20.70441 -33.21538 20.93592 -34.11524C18.28566 -34.07699 16.86943 -33.48413 13.05458 -34.43432C15.5136 -40.52198 21.63045 -42.04389 26.63002 -42.85719C34.9321 -59.85089 53.97415 -61.3557 54.30329 -60.06831ZM37.20793 -49.29412C35.2854 -47.3716 35.2391 -44.29657 37.10324 -42.43142C38.96839 -40.56727 42.04343 -40.61357 43.96595 -42.5361C45.88847 -44.45862 45.93578 -47.53365 44.07063 -49.3988C42.20548 -51.26396 39.13045 -51.21665 37.20793 -49.29412Z"/>
   <path class="monochrome-1 multicolor-1:systemBlackColor hierarchical-1:primary" d="M43.13353 -49.2448C44.5256 -47.85273 44.52056 -45.591 43.12245 -44.1939C42.21857 -43.288 40.90199 -42.93168 39.66896 -43.25881C38.43592 -43.58694 37.47466 -44.54821 37.14753 -45.78124C36.81939 -47.01427 37.17572 -48.33085 38.08162 -49.23474C39.47972 -50.63284 41.74146 -50.63687 43.13353 -49.2448Z"/>
   <path class="monochrome-2 multicolor-2:systemYellowColor hierarchical-2:primary" d="M23.61236 -24.73703C25.01248 -21.39627 13.04451 -15.27841 10.99114 -16.29C9.895 -17.979 15.92125 -28.9233 19.01742 -29.17393C20.91881 -28.36164 22.90575 -26.421 23.61236 -24.73703Z"/>
   <path class="monochrome-3 multicolor-3:systemRedColor hierarchical-3:primary" d="M58.68593 -35.07449L58.68593 -10.27695C58.68593 -9.17477 57.7911 -8.28095 56.68892 -8.28095L52.69692 -8.28095C51.59474 -8.28095 50.69991 -9.17477 50.69991 -10.27695L50.69991 -35.07449C50.69991 -36.17667 51.59474 -37.0715 52.69692 -37.0715L56.68892 -37.0715C57.7911 -37.0715 58.68593 -36.17667 58.68593 -35.07449Z"/>
   <path class="monochrome-4 multicolor-4:systemOrangeColor hierarchical-4:primary" d="M48.16683 -24.99281L48.16683 -10.27795C48.16683 -9.17577 47.273 -8.28095 46.17082 -8.28095L42.17781 -8.28095C41.07664 -8.28095 40.18181 -9.17577 40.18181 -10.27795L40.18181 -24.99281C40.18181 -26.09399 41.07664 -26.98882 42.17781 -26.98882L46.17082 -26.98882C47.273 -26.98882 48.16683 -26.09399 48.16683 -24.99281Z"/>
   <path class="monochrome-5 multicolor-5:systemYellowColor hierarchical-5:primary" d="M37.86626 -14.84672L37.86626 -10.27795C37.86626 -9.17577 36.97244 -8.28095 35.87026 -8.28095L31.87725 -8.28095C30.77507 -8.28095 29.88125 -9.17577 29.88125 -10.27795L29.88125 -14.84672C29.88125 -15.9489 30.77507 -16.84272 31.87725 -16.84272L35.87026 -16.84272C36.97244 -16.84272 37.86626 -15.9489 37.86626 -14.84672Z"/>
   <path class="monochrome-6 hierarchical-6:primary" d="M69.27336 -58.40749L69.27336 -12.05151C69.27336 -5.4334 63.83997 0 57.05175 0L10.69576 0C3.90754 0 -1.52585 -5.4334 -1.52585 -12.05151L-1.52585 -58.40749C-1.52585 -65.0256 3.90754 -70.459 10.69576 -70.459L57.05175 -70.459C63.83997 -70.459 69.27336 -65.0256 69.27336 -58.40749ZM10.69576 -67.23701C5.9589 -67.23701 2.03534 -63.31446 2.03534 -58.40749L2.03534 -12.05151C2.03534 -7.14454 5.9589 -3.22199 10.69576 -3.22199L57.05175 -3.22199C61.7886 -3.22199 65.71216 -7.14454 65.71216 -12.05151L65.71216 -58.40749C65.71216 -63.31446 61.7886 -67.23701 57.05175 -67.23701Z"/>
  </g>
  <g id="Black-S" transform="matrix(1 0 0 1 2899.526 696)">
   <path class="monochrome-0 multicolor-0:systemPinkColor hierarchical-0:primary" d="M54.30329 -60.06831C56.13825 -57.29323 51.62384 -39.22151 37.95177 -32.46751C35.39008 -24.26507 32.59487 -21.02195 29.82382 -19.034C27.88419 -20.32138 27.55504 -23.02499 27.7171 -26.2027C26.85045 -25.8957 25.83383 -25.93294 24.89069 -25.96313C23.8801 -26.49862 20.90774 -29.35121 20.52223 -30.6547C20.37426 -31.72265 20.70441 -33.21538 20.93592 -34.11524C18.28566 -34.07699 16.86943 -33.48413 13.05458 -34.43432C15.5136 -40.52198 21.63045 -42.04389 26.63002 -42.85719C34.9321 -59.85089 53.97415 -61.3557 54.30329 -60.06831ZM37.20793 -49.29412C35.2854 -47.3716 35.2391 -44.29657 37.10324 -42.43142C38.96839 -40.56727 42.04343 -40.61357 43.96595 -42.5361C45.88847 -44.45862 45.93578 -47.53365 44.07063 -49.3988C42.20548 -51.26396 39.13045 -51.21665 37.20793 -49.29412Z"/>
   <path class="monochrome-1 multicolor-1:systemBlackColor hierarchical-1:primary" d="M43.42938 -49.54065C44.98513 -47.9849 44.97956 -45.45818 43.41863 -43.89838C42.40949 -42.88698 40.93922 -42.48893 39.56136 -42.85448C38.18312 -43.22126 37.10871 -44.29598 36.74321 -45.67364C36.37665 -47.05104 36.77445 -48.52151 37.78577 -49.53059C39.34684 -51.09167 41.8735 -51.09653 43.42938 -49.54065Z"/>
   <path class="monochrome-2 multicolor-2:systemYellowColor hierarchical-2:primary" d="M23.61236 -24.73703C25.01248 -21.39627 13.04451 -15.27841 10.99114 -16.29C9.895 -17.979 15.92125 -28.9233 19.01742 -29.17393C20.91881 -28.36164 22.90575 -26.421 23.61236 -24.73703Z"/>
   <path class="monochrome-3 multicolor-3:systemRedColor hierarchical-3:primary" d="M59.10433 -35.07449L59.10433 -10.27695C59.10433 -8.94382 58.0223 -7.86255 56.68892 -7.86255L52.69692 -7.86255C51.36354 -7.86255 50.28151 -8.94382 50.28151 -10.27695L50.28151 -35.07449C50.28151 -36.40774 51.36367 -37.4899 52.69692 -37.4899L56.68892 -37.4899C58.02217 -37.4899 59.10433 -36.40774 59.10433 -35.07449Z"/>
   <path class="monochrome-4 multicolor-4:systemOrangeColor hierarchical-4:primary" d="M48.58523 -24.99281L48.58523 -10.27795C48.58523 -8.94457 47.50395 -7.86255 46.17082 -7.86255L42.17781 -7.86255C40.84538 -7.86255 39.76341 -8.94489 39.76341 -10.27795L39.76341 -24.99281C39.76341 -26.32506 40.84556 -27.40722 42.17781 -27.40722L46.17082 -27.40722C47.50376 -27.40722 48.58523 -26.32538 48.58523 -24.99281Z"/>
   <path class="monochrome-5 multicolor-5:systemYellowColor hierarchical-5:primary" d="M38.28466 -14.84672L38.28466 -10.27795C38.28466 -8.94457 37.20339 -7.86255 35.87026 -7.86255L31.87725 -7.86255C30.54412 -7.86255 29.46285 -8.94457 29.46285 -10.27795L29.46285 -14.84672C29.46285 -16.17997 30.544 -17.26112 31.87725 -17.26112L35.87026 -17.26112C37.20351 -17.26112 38.28466 -16.17997 38.28466 -14.84672Z"/>
   <path class="monochrome-6 hierarchical-6:primary" d="M69.27336 -58.40749L69.27336 -12.05151C69.27336 -5.4334 63.83997 0 57.05175 0L10.69576 0C3.90754 0 -1.52585 -5.4334 -1.52585 -12.05151L-1.52585 -58.40749C-1.52585 -65.0256 3.90754 -70.459 10.69576 -70.459L57.05175 -70.459C63.83997 -70.459 69.27336 -65.0256 69.27336 -58.40749ZM10.69576 -67.23701C5.9589 -67.23701 2.03534 -63.31446 2.03534 -58.40749L2.03534 -12.05151C2.03534 -7.14454 5.9589 -3.22199 10.69576 -3.22199L57.05175 -3.22199C61.7886 -3.22199 65.71216 -7.14454 65.71216 -12.05151L65.71216 -58.40749C65.71216 -63.31446 61.7886 -67.23701 57.05175 -67.23701Z"/>
  </g>
 </g>
</svg>
